<svg width="22" height="22" viewBox="0 0 22 22" fill="none" xmlns="http://www.w3.org/2000/svg">
<g id="Design tools / color palette">
<path id="Vector" d="M6.80166 14.245C6.63093 14.4167 6.5351 14.6491 6.5351 14.8912C6.5351 15.1334 6.63093 15.3657 6.80166 15.5375C6.88687 15.6234 6.98826 15.6916 7.09996 15.7381C7.21166 15.7847 7.33148 15.8086 7.45249 15.8086C7.5735 15.8086 7.69331 15.7847 7.80502 15.7381C7.91672 15.6916 8.01811 15.6234 8.10332 15.5375C8.27405 15.3657 8.36988 15.1334 8.36988 14.8912C8.36988 14.6491 8.27405 14.4167 8.10332 14.245C8.01811 14.1591 7.91672 14.0909 7.80502 14.0443C7.69331 13.9978 7.5735 13.9738 7.45249 13.9738C7.33148 13.9738 7.21166 13.9978 7.09996 14.0443C6.98826 14.0909 6.88687 14.1591 6.80166 14.245ZM6.80166 6.46249C6.63093 6.63424 6.5351 6.86657 6.5351 7.10874C6.5351 7.35091 6.63093 7.58325 6.80166 7.75499C6.88687 7.84091 6.98826 7.90911 7.09996 7.95565C7.21166 8.00218 7.33148 8.02614 7.45249 8.02614C7.5735 8.02614 7.69331 8.00218 7.80502 7.95565C7.91672 7.90911 8.01811 7.84091 8.10332 7.75499C8.27405 7.58325 8.36988 7.35091 8.36988 7.10874C8.36988 6.86657 8.27405 6.63424 8.10332 6.46249C8.01811 6.37658 7.91672 6.30838 7.80502 6.26184C7.69331 6.21531 7.5735 6.19135 7.45249 6.19135C7.33148 6.19135 7.21166 6.21531 7.09996 6.26184C6.98826 6.30838 6.88687 6.37658 6.80166 6.46249ZM11.3392 15.6292C11.1579 15.6292 10.9806 15.6829 10.8299 15.7836C10.6791 15.8844 10.5616 16.0275 10.4923 16.195C10.4229 16.3625 10.4047 16.5468 10.4401 16.7247C10.4755 16.9025 10.5628 17.0658 10.691 17.194C10.8192 17.3222 10.9825 17.4095 11.1603 17.4449C11.3381 17.4802 11.5224 17.4621 11.6899 17.3927C11.8574 17.3233 12.0006 17.2058 12.1013 17.0551C12.2021 16.9044 12.2558 16.7271 12.2558 16.5458C12.262 16.4216 12.2429 16.2975 12.1997 16.1809C12.1564 16.0644 12.0898 15.9578 12.0041 15.8678C11.9183 15.7778 11.8152 15.7061 11.7009 15.6572C11.5866 15.6083 11.4635 15.5832 11.3392 15.5833V15.6292ZM5.83916 10.1292C5.65786 10.1292 5.48063 10.1829 5.32988 10.2836C5.17914 10.3844 5.06165 10.5275 4.99227 10.695C4.92289 10.8625 4.90473 11.0468 4.9401 11.2247C4.97547 11.4025 5.06278 11.5658 5.19097 11.694C5.31917 11.8222 5.48251 11.9095 5.66032 11.9449C5.83814 11.9803 6.02245 11.9621 6.18995 11.8927C6.35745 11.8233 6.50061 11.7058 6.60134 11.5551C6.70206 11.4044 6.75582 11.2271 6.75582 11.0458C6.76204 10.9216 6.74293 10.7975 6.69965 10.6809C6.65638 10.5644 6.58984 10.4578 6.5041 10.3678C6.41835 10.2778 6.31518 10.2061 6.20087 10.1572C6.08656 10.1083 5.96349 10.0832 5.83916 10.0833V10.1292ZM11.3392 4.62916C11.1579 4.62916 10.9806 4.68292 10.8299 4.78365C10.6791 4.88437 10.5616 5.02754 10.4923 5.19503C10.4229 5.36253 10.4047 5.54684 10.4401 5.72466C10.4755 5.90248 10.5628 6.06581 10.691 6.19401C10.8192 6.32221 10.9825 6.40951 11.1603 6.44488C11.3381 6.48025 11.5224 6.4621 11.6899 6.39272C11.8574 6.32334 12.0006 6.20585 12.1013 6.0551C12.2021 5.90436 12.2558 5.72713 12.2558 5.54583C12.262 5.42165 12.2429 5.2975 12.1997 5.18094C12.1564 5.06438 12.0898 4.95785 12.0041 4.86781C11.9183 4.77778 11.8152 4.70612 11.7009 4.65722C11.5866 4.60831 11.4635 4.58317 11.3392 4.58333V4.62916ZM14.5842 6.50833C14.4554 6.63631 14.3676 6.79963 14.3318 6.9776C14.2959 7.15556 14.3138 7.34015 14.383 7.50797C14.4522 7.67578 14.5697 7.81927 14.7206 7.92024C14.8714 8.0212 15.0489 8.0751 15.2304 8.0751C15.4119 8.0751 15.5894 8.0212 15.7402 7.92024C15.8911 7.81927 16.0086 7.67578 16.0778 7.50797C16.147 7.34015 16.1649 7.15556 16.1291 6.9776C16.0932 6.79963 16.0054 6.63631 15.8767 6.50833C15.711 6.33137 15.4821 6.2272 15.2399 6.21862C14.9976 6.21003 14.7619 6.29771 14.5842 6.46249V6.50833ZM20.3592 6.50833C19.5211 4.83293 18.2329 3.42413 16.6389 2.43989C15.045 1.45565 13.2084 0.934887 11.3351 0.936006C9.46181 0.937126 7.62585 1.46008 6.03311 2.44622C4.44037 3.43237 3.15383 4.84272 2.31776 6.51911C1.48169 8.1955 1.12916 10.0717 1.29968 11.9372C1.4702 13.8027 2.15704 15.5839 3.28318 17.0809C4.40932 18.578 5.93023 19.7317 7.67537 20.4127C9.4205 21.0938 11.3208 21.2752 13.1633 20.9367C13.6266 20.8495 14.0679 20.6708 14.4614 20.4111C14.8549 20.1514 15.1927 19.8159 15.455 19.4242C15.7376 18.9983 15.9327 18.5204 16.0287 18.0183C16.1247 17.5163 16.1197 17.0001 16.0142 16.5C15.9564 16.1978 15.9258 15.891 15.9225 15.5833C15.9265 14.695 16.1886 13.8271 16.6768 13.085C17.165 12.3429 17.8584 11.7586 18.6725 11.4033C19.1115 11.2068 19.5055 10.9224 19.8303 10.5676C20.155 10.2129 20.4037 9.79538 20.5608 9.34083C20.7198 8.87634 20.7838 8.38466 20.7492 7.89495C20.7145 7.40525 20.5819 6.92748 20.3592 6.48999V6.50833ZM18.8008 8.74499C18.7226 8.96437 18.6012 9.16583 18.4437 9.33745C18.2863 9.50907 18.096 9.64737 17.8842 9.74416C16.7566 10.2489 15.7988 11.0683 15.1256 12.1041C14.4524 13.1399 14.0925 14.348 14.0892 15.5833C14.0905 16.0142 14.1335 16.444 14.2175 16.8667C14.2735 17.125 14.2772 17.3919 14.2284 17.6516C14.1796 17.9114 14.0792 18.1588 13.9333 18.3792C13.8099 18.572 13.6474 18.7369 13.4564 18.8632C13.2653 18.9895 13.05 19.0744 12.8242 19.1125C12.3345 19.2045 11.8374 19.2505 11.3392 19.25C10.2338 19.2505 9.13963 19.0289 8.12159 18.5984C7.10354 18.1678 6.18241 17.5371 5.41287 16.7436C4.64333 15.9501 4.0411 15.0101 3.64192 13.9793C3.24274 12.9486 3.05477 11.8481 3.08915 10.7433C3.1603 8.68339 3.99574 6.7237 5.43273 5.24604C6.86972 3.76838 8.80534 2.87859 10.8625 2.74999H11.33C12.8661 2.75038 14.3716 3.17962 15.6769 3.98939C16.9823 4.79915 18.0356 5.95727 18.7183 7.33333C18.9285 7.76873 18.9581 8.26951 18.8008 8.72666V8.74499ZM11.3392 10.0833C11.1579 10.0833 10.9806 10.1371 10.8299 10.2378C10.6791 10.3385 10.5616 10.4817 10.4923 10.6492C10.4229 10.8167 10.4047 11.001 10.4401 11.1788C10.4755 11.3566 10.5628 11.52 10.691 11.6482C10.8192 11.7764 10.9825 11.8637 11.1603 11.899C11.3381 11.9344 11.5224 11.9163 11.6899 11.8469C11.8574 11.7775 12.0006 11.66 12.1013 11.5093C12.2021 11.3585 12.2558 11.1813 12.2558 11C12.2558 10.7569 12.1592 10.5237 11.9873 10.3518C11.8154 10.1799 11.5823 10.0833 11.3392 10.0833Z" fill="#006AFF"/>
</g>
</svg>
