<svg width="20" height="20" viewBox="0 0 20 20" fill="none" xmlns="http://www.w3.org/2000/svg">
<g id="Brands / instagram">
<path id="Vector" d="M14.4498 4.55008C14.2521 4.55008 14.0587 4.60873 13.8943 4.71861C13.7298 4.82849 13.6016 4.98467 13.526 5.1674C13.4503 5.35012 13.4305 5.55119 13.4691 5.74517C13.5076 5.93915 13.6029 6.11734 13.7427 6.25719C13.8826 6.39704 14.0608 6.49228 14.2547 6.53087C14.4487 6.56945 14.6498 6.54965 14.8325 6.47396C15.0152 6.39827 15.1714 6.2701 15.2813 6.10565C15.3912 5.9412 15.4498 5.74786 15.4498 5.55008C15.4498 5.28486 15.3445 5.03051 15.1569 4.84297C14.9694 4.65544 14.7151 4.55008 14.4498 4.55008ZM18.2832 6.56675C18.267 5.87533 18.1375 5.19125 17.8998 4.54175C17.6879 3.98603 17.3582 3.48281 16.9332 3.06675C16.5205 2.6396 16.0161 2.3119 15.4582 2.10841C14.8104 1.86355 14.1255 1.73109 13.4332 1.71675C12.5498 1.66675 12.2665 1.66675 9.99984 1.66675C7.73317 1.66675 7.44984 1.66675 6.5665 1.71675C5.87413 1.73109 5.18929 1.86355 4.5415 2.10841C3.98457 2.31396 3.48062 2.64138 3.0665 3.06675C2.63936 3.4794 2.31165 3.98378 2.10817 4.54175C1.8633 5.18953 1.73085 5.87438 1.7165 6.56675C1.6665 7.45008 1.6665 7.73342 1.6665 10.0001C1.6665 12.2667 1.6665 12.5501 1.7165 13.4334C1.73085 14.1258 1.8633 14.8106 2.10817 15.4584C2.31165 16.0164 2.63936 16.5208 3.0665 16.9334C3.48062 17.3588 3.98457 17.6862 4.5415 17.8917C5.18929 18.1366 5.87413 18.2691 6.5665 18.2834C7.44984 18.3334 7.73317 18.3334 9.99984 18.3334C12.2665 18.3334 12.5498 18.3334 13.4332 18.2834C14.1255 18.2691 14.8104 18.1366 15.4582 17.8917C16.0161 17.6883 16.5205 17.3606 16.9332 16.9334C17.36 16.5189 17.6901 16.0152 17.8998 15.4584C18.1375 14.8089 18.267 14.1248 18.2832 13.4334C18.2832 12.5501 18.3332 12.2667 18.3332 10.0001C18.3332 7.73342 18.3332 7.45008 18.2832 6.56675ZM16.7832 13.3334C16.7771 13.8624 16.6813 14.3865 16.4998 14.8834C16.3668 15.2461 16.1531 15.5738 15.8748 15.8417C15.6045 16.1172 15.2775 16.3304 14.9165 16.4667C14.4196 16.6482 13.8955 16.744 13.3665 16.7501C12.5332 16.7917 12.2248 16.8001 10.0332 16.8001C7.8415 16.8001 7.53317 16.8001 6.69984 16.7501C6.15058 16.7604 5.60367 16.6758 5.08317 16.5001C4.73799 16.3568 4.42597 16.1441 4.1665 15.8751C3.88991 15.6074 3.67887 15.2794 3.54984 14.9167C3.34638 14.4127 3.23354 13.8767 3.2165 13.3334C3.2165 12.5001 3.1665 12.1917 3.1665 10.0001C3.1665 7.80841 3.1665 7.50008 3.2165 6.66675C3.22024 6.12596 3.31896 5.59004 3.50817 5.08341C3.65488 4.73167 3.88006 4.41813 4.1665 4.16675C4.41968 3.88022 4.73258 3.65266 5.08317 3.50008C5.59113 3.31678 6.1265 3.22098 6.6665 3.21675C7.49984 3.21675 7.80817 3.16675 9.99984 3.16675C12.1915 3.16675 12.4998 3.16675 13.3332 3.21675C13.8621 3.22282 14.3863 3.31862 14.8832 3.50008C15.2619 3.64062 15.6017 3.86912 15.8748 4.16675C16.1479 4.42273 16.3613 4.73569 16.4998 5.08341C16.685 5.59086 16.7809 6.12656 16.7832 6.66675C16.8248 7.50008 16.8332 7.80841 16.8332 10.0001C16.8332 12.1917 16.8248 12.5001 16.7832 13.3334ZM9.99984 5.72508C9.15468 5.72673 8.32897 5.97885 7.62705 6.4496C6.92513 6.92034 6.37849 7.58858 6.0562 8.36988C5.73391 9.15117 5.65044 10.0105 5.81633 10.8392C5.98222 11.6679 6.39003 12.4289 6.98823 13.0259C7.58643 13.6229 8.34818 14.0293 9.17722 14.1935C10.0063 14.3578 10.8654 14.2727 11.6461 13.9489C12.4267 13.6251 13.0939 13.0771 13.5633 12.3743C14.0327 11.6714 14.2832 10.8452 14.2832 10.0001C14.2843 9.43767 14.1742 8.88059 13.9592 8.36088C13.7442 7.84117 13.4286 7.36909 13.0306 6.97179C12.6325 6.57449 12.1598 6.25981 11.6397 6.04586C11.1195 5.8319 10.5622 5.72288 9.99984 5.72508ZM9.99984 12.7751C9.45099 12.7751 8.91448 12.6123 8.45813 12.3074C8.00178 12.0025 7.6461 11.5691 7.43607 11.062C7.22604 10.555 7.17108 9.997 7.27816 9.45871C7.38523 8.92041 7.64953 8.42595 8.03762 8.03786C8.42571 7.64977 8.92016 7.38548 9.45846 7.2784C9.99676 7.17133 10.5547 7.22628 11.0618 7.43632C11.5688 7.64635 12.0022 8.00203 12.3072 8.45837C12.6121 8.91472 12.7748 9.45124 12.7748 10.0001C12.7748 10.3645 12.7031 10.7253 12.5636 11.062C12.4241 11.3987 12.2197 11.7046 11.9621 11.9623C11.7044 12.22 11.3985 12.4244 11.0618 12.5638C10.7251 12.7033 10.3643 12.7751 9.99984 12.7751Z" fill="white"/>
</g>
</svg>
