<svg width="20" height="20" viewBox="0 0 20 20" fill="none" xmlns="http://www.w3.org/2000/svg">
<g id="Brands / social media">
<path id="Vector" d="M15.6915 7.86658C15.6151 7.75349 15.512 7.66091 15.3914 7.59698C15.2708 7.53304 15.1363 7.49971 14.9998 7.49992H12.4998V5.83325H14.3332C14.5542 5.83325 14.7661 5.74545 14.9224 5.58917C15.0787 5.43289 15.1665 5.22093 15.1665 4.99992V1.66659C15.1665 1.44557 15.0787 1.23361 14.9224 1.07733C14.7661 0.921049 14.5542 0.833252 14.3332 0.833252H11.6665C10.3846 0.833252 9.15525 1.34248 8.24882 2.2489C7.3424 3.15533 6.83317 4.38471 6.83317 5.66658V7.49992H4.99984C4.77882 7.49992 4.56686 7.58772 4.41058 7.744C4.2543 7.90028 4.1665 8.11224 4.1665 8.33325V11.6666C4.1665 11.8876 4.2543 12.0996 4.41058 12.2558C4.56686 12.4121 4.77882 12.4999 4.99984 12.4999H6.83317V18.3333C6.83317 18.5543 6.92097 18.7662 7.07725 18.9225C7.23353 19.0788 7.44549 19.1666 7.6665 19.1666H11.6665C11.8875 19.1666 12.0995 19.0788 12.2558 18.9225C12.412 18.7662 12.4998 18.5543 12.4998 18.3333V12.4999H13.6665C13.8334 12.5001 13.9965 12.4501 14.1347 12.3565C14.2729 12.2629 14.3798 12.13 14.4415 11.9749L15.7748 8.64158C15.8252 8.5154 15.8439 8.37882 15.8294 8.24374C15.8148 8.10866 15.7675 7.97919 15.6915 7.86658ZM13.0998 10.8333H11.6665C11.4455 10.8333 11.2335 10.921 11.0772 11.0773C10.921 11.2336 10.8332 11.4456 10.8332 11.6666V17.4999H8.49984V11.6666C8.49984 11.4456 8.41204 11.2336 8.25576 11.0773C8.09948 10.921 7.88752 10.8333 7.6665 10.8333H5.83317V9.16658H7.6665C7.88752 9.16658 8.09948 9.07879 8.25576 8.92251C8.41204 8.76623 8.49984 8.55427 8.49984 8.33325V5.66658C8.50204 4.82741 8.83637 4.02323 9.42976 3.42984C10.0232 2.83645 10.8273 2.50212 11.6665 2.49992H13.4998V4.16658H12.8332C12.551 4.12548 12.2634 4.14273 11.9882 4.21727C11.713 4.29181 11.456 4.42204 11.2332 4.59992C11.0979 4.7415 10.9928 4.909 10.924 5.09232C10.8553 5.27565 10.8244 5.47099 10.8332 5.66658V8.33325C10.8332 8.55427 10.921 8.76623 11.0772 8.92251C11.2335 9.07879 11.4455 9.16658 11.6665 9.16658H13.7665L13.0998 10.8333Z" fill="white"/>
</g>
</svg>
