<svg width="24" height="24" viewBox="0 0 24 24" fill="none" xmlns="http://www.w3.org/2000/svg">
<g id="status-online">
<path id="Vector" d="M5.63608 18.364C4.80034 17.5283 4.13739 16.5361 3.68509 15.4442C3.2328 14.3522 3 13.1819 3 12C3 10.8181 3.2328 9.64775 3.68509 8.55581C4.13739 7.46387 4.80034 6.47172 5.63608 5.63599M18.3641 5.63599C19.1998 6.47172 19.8628 7.46387 20.3151 8.55581C20.7674 9.64775 21.0002 10.8181 21.0002 12C21.0002 13.1819 20.7674 14.3522 20.3151 15.4442C19.8628 16.5361 19.1998 17.5283 18.3641 18.364M8.46408 15.535C7.52672 14.5973 7.00015 13.3258 7.00015 12C7.00015 10.6742 7.52672 9.40262 8.46408 8.46499M15.5361 8.46499C16.4734 9.40262 17 10.6742 17 12C17 13.3258 16.4734 14.5973 15.5361 15.535M13.0001 12C13.0001 12.2652 12.8947 12.5196 12.7072 12.7071C12.5196 12.8946 12.2653 13 12.0001 13C11.7349 13 11.4805 12.8946 11.293 12.7071C11.1054 12.5196 11.0001 12.2652 11.0001 12C11.0001 11.7348 11.1054 11.4804 11.293 11.2929C11.4805 11.1053 11.7349 11 12.0001 11C12.2653 11 12.5196 11.1053 12.7072 11.2929C12.8947 11.4804 13.0001 11.7348 13.0001 12Z" stroke="#006AFF" stroke-width="2" stroke-linecap="round" stroke-linejoin="round"/>
</g>
</svg>
