<svg width="20" height="20" viewBox="0 0 20 20" fill="none" xmlns="http://www.w3.org/2000/svg">
<g id="Brands / telegram">
<path id="Vector" d="M18.5541 2.02315C18.3168 1.82576 18.0305 1.6964 17.7255 1.64882C17.4206 1.60124 17.1084 1.63724 16.8223 1.75297L1.88821 7.78243C1.56884 7.91384 1.29698 8.13926 1.10871 8.42878C0.920449 8.7183 0.824686 9.05824 0.834134 9.40346C0.843581 9.74868 0.957794 10.0829 1.16161 10.3617C1.36543 10.6404 1.64921 10.8507 1.9753 10.9644L4.99613 12.015L6.67988 17.583C6.70276 17.6574 6.73597 17.7282 6.77853 17.7934C6.78499 17.8034 6.7941 17.8108 6.80096 17.8205C6.85013 17.8891 6.90956 17.9498 6.97715 18.0003C6.99638 18.015 7.01479 18.0287 7.03534 18.0417C7.11445 18.0942 7.20206 18.1326 7.29428 18.1552L7.30414 18.156L7.30974 18.1584C7.36518 18.1697 7.42161 18.1754 7.4782 18.1755C7.48364 18.1755 7.48847 18.1729 7.49386 18.1728C7.57925 18.1713 7.66389 18.1566 7.74477 18.1292C7.76359 18.1228 7.77971 18.1121 7.79797 18.1043C7.85828 18.0793 7.91543 18.0473 7.96821 18.0089C8.01048 17.9732 8.05276 17.9376 8.09506 17.902L10.3469 15.4159L13.7054 18.0176C14.0011 18.2478 14.365 18.3729 14.7398 18.3732C15.1324 18.3727 15.513 18.2373 15.8176 17.9895C16.1222 17.7418 16.3324 17.3968 16.413 17.0125L19.1319 3.66541C19.1935 3.36501 19.1723 3.05351 19.0705 2.76423C18.9687 2.47496 18.7902 2.2188 18.5541 2.02315ZM7.80863 12.2803C7.69308 12.3954 7.61409 12.5421 7.58158 12.7019L7.32365 13.9552L6.67027 11.7943L10.058 10.0302L7.80863 12.2803ZM14.7268 16.7L10.7578 13.6255C10.5918 13.4972 10.3835 13.4362 10.1745 13.4546C9.96542 13.473 9.77099 13.5694 9.62991 13.7248L8.90874 14.5208L9.1636 13.2821L15.0661 7.37958C15.207 7.23888 15.2928 7.05237 15.3081 6.85384C15.3233 6.65532 15.2669 6.45789 15.1492 6.29734C15.0314 6.13678 14.8601 6.02371 14.6661 5.9786C14.4722 5.9335 14.2685 5.95934 14.092 6.05145L5.62092 10.462L2.51729 9.32622L17.4994 3.33254L14.7268 16.7Z" fill="white"/>
</g>
</svg>
